<?xml version="1.0" encoding="UTF-8"?>
<svg width="24" height="24" viewBox="0 0 24 24" fill="currentColor" xmlns="http://www.w3.org/2000/svg" aria-hidden="true">
  <path d="M22 7.666c0-1.897-1.424-2.333-2.618-2.333-1.637 0-2.67.97-2.67 2.333 0 1.258.823 2.11 2.158 2.254-1.848.337-2.722 1.57-2.722 3.003 0 2.14 1.748 3.14 3.328 3.14 2.13 0 3.344-1.403 3.344-3.165 0-1.638-1.294-2.55-2.715-2.825 1.353-.264 1.895-1.284 1.895-2.407zm-2.895 6.746c-.524 0-1.01-.194-1.01-.84 0-.624.486-.812 1.01-.812s1.01.188 1.01.812-.486.84-1.01.84zm0-3.88c-.443 0-.853-.166-.853-.71 0-.52.41-.693.853-.693s.854.173.854.693c0 .544-.41.71-.854.71zm-9.39 3.012c.03.18.062.355.097.51.62 3.344 2.17 3.514 3.84 3.514 1.942 0 3.153-.88 3.153-.88l-.514-1.747s-.66.425-1.575.425c-1.013 0-1.554-.424-1.583-1.3h3.586c.01-.15.013-.3.013-.45 0-1.72-1.03-3.193-2.845-3.193-1.85 0-3.052 1.343-3.13 3.12zm1.66-1.565c.08-.58.55-.95 1.14-.95.636 0 1.056.37 1.103.95h-2.243zM19.42 2.333h-5.42V1.25H21v1.083z"/>
</svg>